<?xml version="1.0" encoding="utf-8"?>
<!-- Generator: Adobe Illustrator 16.0.0, SVG Export Plug-In . SVG Version: 6.00 Build 0)  -->
<!DOCTYPE svg PUBLIC "-//W3C//DTD SVG 1.1//EN" "http://www.w3.org/Graphics/SVG/1.1/DTD/svg11.dtd">
<svg version="1.1" id="Layer_1" xmlns="http://www.w3.org/2000/svg" xmlns:xlink="http://www.w3.org/1999/xlink" x="0px" y="0px"
	 width="500px" height="500px" viewBox="0 0 500 500" enable-background="new 0 0 500 500" xml:space="preserve">
<path fill="#E74C3C" stroke="#FFB307" stroke-width="20" stroke-miterlimit="10" d="M423,200.223c0,0,0-22.941-4.392-40.44
	c-10.534-41.972-43.96-64.528-72.775-67.251c-5.53-0.522-8.893-0.775-13.742-0.775c-38.851,0-57.546,16.247-78.878,40.85
	c-21.333-24.603-40.327-40.85-79.169-40.85c-4.847,0-11.246,0.253-16.764,0.775c-33.619,3.177-73.104,32.964-79.28,90.045v19
	c6.176,54.633,46.618,122.021,171.172,206.568C373.723,323.599,423,254.856,423,200.223z"/>
<polygon fill="#E74C3C" stroke="#FFB307" stroke-width="5" stroke-miterlimit="10" points="-154.52,349.906 -104.139,299.155 
	-32.826,293.813 -140.48,60.261 -262.174,116.355 "/>
<polygon fill="#E74C3C" stroke="#FFB307" stroke-width="5" stroke-miterlimit="10" points="-239.48,349.906 -289.862,299.155 
	-361.174,293.813 -253.52,60.261 -131.826,116.355 "/>
<circle fill="#F5DA0F" stroke="#FFB307" stroke-width="20" stroke-miterlimit="10" cx="-199.068" cy="64.6" r="129.091"/>
<g>
	<path fill="#FFB307" stroke="#F5DA0F" stroke-miterlimit="10" d="M-182.54-0.311v103.769c0,5.669,1.229,9.819,3.688,12.45
		c2.458,2.633,6.318,3.948,11.583,3.948h6.94v9.196h-72.707v-9.196h7.635c5.263,0,9.124-1.33,11.583-3.991
		c2.458-2.66,3.688-6.796,3.688-12.407V34.742c0-6.073-1.114-10.121-3.34-12.146c-2.228-2.024-6.204-3.037-11.93-3.037h-7.635V11.75
		c9.197-0.924,16.672-2.356,22.428-4.294c5.754-1.938,10.251-4.525,13.492-7.766H-182.54z"/>
</g>
</svg>
