<?xml version="1.0" encoding="utf-8"?>
<!-- Generator: Adobe Illustrator 16.0.0, SVG Export Plug-In . SVG Version: 6.00 Build 0)  -->
<!DOCTYPE svg PUBLIC "-//W3C//DTD SVG 1.1//EN" "http://www.w3.org/Graphics/SVG/1.1/DTD/svg11.dtd">
<svg version="1.1" id="Layer_1" xmlns="http://www.w3.org/2000/svg" xmlns:xlink="http://www.w3.org/1999/xlink" x="0px" y="0px"
	 width="500px" height="500px" viewBox="0 0 500 500" enable-background="new 0 0 500 500" xml:space="preserve">
<g>
	<polygon fill="#E74C3C" stroke="#FFB307" stroke-width="5" stroke-miterlimit="10" points="292.48,456.906 342.861,406.155 
		414.174,400.813 306.52,167.261 184.826,223.355 	"/>
	<polygon fill="#E74C3C" stroke="#FFB307" stroke-width="5" stroke-miterlimit="10" points="207.52,456.906 157.138,406.155 
		85.826,400.813 193.48,167.261 315.174,223.355 	"/>
	<circle fill="#F5DA0F" stroke="#FFB307" stroke-width="20" stroke-miterlimit="10" cx="247.932" cy="171.6" r="129.091"/>
	<g>
		<path fill="#FFB307" stroke="#F5DA0F" stroke-miterlimit="10" d="M264.46,106.689v103.769c0,5.669,1.229,9.819,3.688,12.45
			c2.458,2.633,6.318,3.948,11.583,3.948h6.94v9.196h-72.707v-9.196h7.635c5.263,0,9.124-1.33,11.583-3.991
			c2.458-2.66,3.688-6.796,3.688-12.407v-68.716c0-6.073-1.114-10.121-3.34-12.146c-2.228-2.024-6.204-3.037-11.93-3.037h-7.635
			v-7.809c9.197-0.924,16.672-2.356,22.428-4.294c5.754-1.938,10.251-4.525,13.492-7.766H264.46z"/>
	</g>
</g>
</svg>
