<?xml version="1.0" encoding="utf-8"?>
<!-- Generator: Adobe Illustrator 16.0.0, SVG Export Plug-In . SVG Version: 6.00 Build 0)  -->
<!DOCTYPE svg PUBLIC "-//W3C//DTD SVG 1.1//EN" "http://www.w3.org/Graphics/SVG/1.1/DTD/svg11.dtd">
<svg version="1.1" id="Layer_2" xmlns="http://www.w3.org/2000/svg" xmlns:xlink="http://www.w3.org/1999/xlink" x="0px" y="0px"
	 width="500px" height="500px" viewBox="0 0 500 500" enable-background="new 0 0 500 500" xml:space="preserve">
<polygon fill="#E74C3C" stroke="#FFB307" stroke-width="5" stroke-miterlimit="10" points="-154.52,333.906 -104.139,283.155 
	-32.826,277.813 -140.48,44.261 -262.174,100.355 "/>
<polygon fill="#E74C3C" stroke="#FFB307" stroke-width="5" stroke-miterlimit="10" points="-239.48,333.906 -289.862,283.155 
	-361.174,277.813 -253.52,44.261 -131.826,100.355 "/>
<circle fill="#F5DA0F" stroke="#FFB307" stroke-width="20" stroke-miterlimit="10" cx="-199.068" cy="48.6" r="129.091"/>
<g>
	<path fill="#FFB307" stroke="#F5DA0F" stroke-miterlimit="10" d="M-182.54-16.311V87.458c0,5.669,1.229,9.819,3.688,12.45
		c2.458,2.633,6.318,3.948,11.583,3.948h6.94v9.196h-72.707v-9.196h7.635c5.263,0,9.124-1.33,11.583-3.991
		c2.458-2.66,3.688-6.796,3.688-12.407V18.742c0-6.073-1.114-10.121-3.34-12.146c-2.228-2.024-6.204-3.037-11.93-3.037h-7.635V-4.25
		c9.197-0.924,16.672-2.356,22.428-4.294c5.754-1.938,10.251-4.525,13.492-7.766H-182.54z"/>
</g>
<g>
	<path fill="#F5DA0F" stroke="#FFB307" stroke-width="5" stroke-miterlimit="10" d="M75.965,186.767c0,0,27.28,14.272,48.5,12.18
		c38.49-3.798,52.6-38.723,80.523-40.112c14.759-0.734,26.221,24.074,35.493,32.635c47.24,43.613,149.766,80.471,149.766,80.471
		s15.036,34.544-29.516,33.606c-6.287-4.431,6.495,13.713-1.529,25.53c-6.483,9.544-35.208,1.546-30.683,2.61
		c2.771,0.649,7.073,18.651,2.051,25.764c-5.988,8.48-27.65,4.977-27.65,4.977s-3.189,8.218-9.097,15.416
		c-4.903,5.977-11.677,11.254-20.058,10.552C213.963,402.838,57.208,281.821,58.398,275.79
		C59.588,269.761,75.965,186.767,75.965,186.767z"/>
	<path fill="#E74C3C" stroke="#FFB307" stroke-width="5" stroke-miterlimit="10" d="M167.48,237.009
		c0,0,30.792-87.808,61.953-96.569c32.299-10.45,50.56,1.692,50.56,1.692s14.842,8.212,51.416-4.617
		c37.913-15.768,39.325-27.868,39.325-27.868l71.531,97.611l-28.271,20.736c0,0-23.07,31.034-36.135,39.238
		c-10.318-4.136-57.819-22.46-83.067-38.52c-7.01-4.459-10.254-5.902-13.295-7.644c-3.897-2.233-14.614-9.224-14.614-9.224
		s-19.064-2.452-28.97,12.941c-12.803,19.892-16.646,26.455-37.79,41.947c0,0-10.032,7.212-26.39-0.838
		C161.813,257.388,167.48,237.009,167.48,237.009z"/>
	
		<rect x="373.724" y="87.008" transform="matrix(0.7941 -0.6078 0.6078 0.7941 -19.4643 273.9172)" fill="#F5DA0F" stroke="#FFB307" stroke-width="5" stroke-miterlimit="10" width="41.556" height="157.35"/>
	
		<rect x="58.83" y="167.444" transform="matrix(0.972 0.2351 -0.2351 0.972 60.1056 -11.8182)" fill="#E74C3C" stroke="#FFB307" stroke-width="5" stroke-miterlimit="10" width="41.555" height="157.351"/>
	
		<ellipse transform="matrix(0.9338 0.3578 -0.3578 0.9338 138.4143 -40.5677)" fill="#E74C3C" stroke="#FFB307" stroke-width="5" stroke-miterlimit="10" cx="178.836" cy="353.762" rx="18.392" ry="27.319"/>
	
		<ellipse transform="matrix(0.9338 0.3578 -0.3578 0.9338 146.3728 -53.0454)" fill="#E74C3C" stroke="#FFB307" stroke-width="5" stroke-miterlimit="10" cx="216.554" cy="369.085" rx="20.502" ry="28.878"/>
	
		<ellipse transform="matrix(0.9338 0.3578 -0.3578 0.9338 127.7414 -30.3381)" fill="#E74C3C" stroke="#FFB307" stroke-width="5" stroke-miterlimit="10" cx="145.861" cy="330.057" rx="19.008" ry="22.56"/>
	
		<ellipse transform="matrix(0.9338 0.3577 -0.3577 0.9338 154.9514 -66.1093)" fill="#E74C3C" stroke="#FFB307" stroke-width="5" stroke-miterlimit="10" cx="256.165" cy="385.769" rx="19.008" ry="24.346"/>
	<circle fill="#E74C3C" stroke="#FFB307" stroke-width="5" stroke-miterlimit="10" cx="432.157" cy="212.697" r="12.196"/>
	<circle fill="#F5DA0F" stroke="#FFB307" stroke-width="5" stroke-miterlimit="10" cx="67.212" cy="300.504" r="12.195"/>
</g>
</svg>
